{
  "asset": { "version": "2.0", "generator": "Mouch NFT test" },
  "scene": 0,
  "scenes": [{ "nodes": [0] }],
  "nodes": [{ "mesh": 0, "name": "Mouch Test Trophy" }],
  "materials": [{ "name": "gold", "pbrMetallicRoughness": { "baseColorFactor": [0.95, 0.72, 0.18, 1], "metallicFactor": 0.4, "roughnessFactor": 0.35 } }],
  "meshes": [{
    "name": "Mouch Test Trophy Pyramid",
    "primitives": [{ "attributes": { "POSITION": 0 }, "indices": 1, "material": 0 }]
  }],
  "buffers": [{ "uri": "data:application/octet-stream;base64,", "byteLength": 112 }],
  "bufferViews": [
    { "buffer": 0, "byteOffset": 0, "byteLength": 60, "target": 34962 },
    { "buffer": 0, "byteOffset": 60, "byteLength": 52, "target": 34963 }
  ],
  "accessors": [
    { "bufferView": 0, "componentType": 5126, "count": 5, "type": "VEC3", "min": [-1, -1, 0], "max": [1, 1, 2] },
    { "bufferView": 1, "componentType": 5123, "count": 18, "type": "SCALAR" }
  ]
}
